# xmcd CD database file
#
# Track frame offsets:
#	150
#	33905
#	62870
#	91950
#	112055
#	133913
#	155485
#	179435
#	204863
#
# Disc length: 3049 seconds
#
# Revision: 0
# Processed by: cddbd v1.5.1PL0 Copyright (c) Steve Scherf et al.
# Submitted via: CDex 1.50
#
DISCID=7b0be709
DTITLE=Wes Montgomery - Encores Vol 1 - Body and Soul
DYEAR=1996
DGENRE=Jazz
TTITLE0=Body and Soul (Take 4/6 - Alternate)
TTITLE1=So Do It (Take 1)
TTITLE2=Movin' Along (Take 4 - Alternate)
TTITLE3=Doujie (Take 7 - Alternate)
TTITLE4=Doujie (Take 8)
TTITLE5=Blue Roz (Take 3 - Alternate)
TTITLE6=Stablemates (Take 2)
TTITLE7=Sam Sack (Take 2)
TTITLE8="S.K.J." (Take 4)
EXTD=YEAR: 1996
EXTT0=
EXTT1=
EXTT2=
EXTT3=
EXTT4=
EXTT5=
EXTT6=
EXTT7=
EXTT8=
PLAYORDER=
